<svg xmlns="http://www.w3.org/2000/svg" width="600" height="595"><g class="layer"><circle cx="298.9" cy="298.2" r="287.1" fill="#fff"/><path fill="#305f97" d="M271.5 1.1c-68.8 4.4-147.4 43.2-194.4 96a284.3 284.3 0 0 0-31 40.4C6.8 197.6-8.6 276 4 352c21.5 130.2 139.3 234.7 272.6 242.1 64.4 3.5 110.4-5.7 161.3-32.3 93.3-48.7 151-137.2 160.7-246.3 4.8-54.9-15-129.7-47.5-179C488.9 41.7 389.4-6.5 271.6 1.1zm68.8 15.3A284.8 284.8 0 0 1 579.5 354 287.3 287.3 0 0 1 440 545.2l-11.2 6.2c-54.5 29.7-134 38.5-199.3 22-54.8-13.8-111.5-48.1-146-88.4-2.7-3-5.8-6.8-7.1-8.3C-15.2 371.1-6.3 196.4 95.7 98A286.8 286.8 0 0 1 281 14.5a523 523 0 0 1 59.3 2z"/><path fill="#305f97" d="M294.9 66.9c-3.7 3.7-4 13.9-1 37.3 2.8 21.2 4 24 9.5 21.8 2.9-1 9.8-48.3 8-55.5-1.6-6.7-11.2-8.8-16.5-3.6zm58.1 38.8-4.4 3.5c-1.6 1.5-3.8 1.8-13.3 1.8s-12 .3-15.4 2c-5 2.6-5 2.6 4.2 4.5 4 .8 11.9 3.1 17.4 5a142 142 0 0 0 13.8 4c3.8.7 4 1.1 5 7.5.3 1.3.5-4.1.6-12.2.2-18.8-1-21-8-16.1zM144.5 130a16.8 16.8 0 0 0-7.9 8.4c-1.4 5.4.8 8 24.4 28.5l17.4 15.3 2.3-2.7c3.5-4 2.9-6.4-3.9-16.7-13.9-21.2-27.2-34.7-32.3-32.8z"/><path fill="#305f97" d="M290.5 131.6a162.1 162.1 0 0 0-140.3 204.3l3.6 14.3c.6 3.6-3 9.2-24.8 39.3a284.3 284.3 0 0 0-17.4 25.4c.3.3 14.8.8 32.2 1.2 17.4.4 32.5 1 33.5 1.4 2.4 1 1 2.5-9.8 11-18.7 14.6-24 24.3-16.6 30.2 6.9 5.5 7.8 5.3 17.7-4.6 7.4-7.4 6.5-7.4 16.1-.3l7.8 5.8 50.8 1.1c28 .6 51.1 1.3 51.3 1.6.3.3 0 7-.6 14.8-3.3 42.7-3.3 42.9 7.1 42.9 11.4 0 12.2-2.6 9-29-3-23.7-3.1-25.4-1.7-26.9 2-1.9 17.8-2.8 67.6-3.7l41.5-.7 6.5-7.9c7.9-9.5 6-9.6 16.7 1.2 6.9 7 9.4 9 11.6 9 5.5 0 10.7-5.7 10.7-11.6 0-4.5-37.1-38.4-42-38.4-6 0-6.7 6-1.6 13.2 3.4 4.8 2.6 5.1-10.7 4.5-18.3-.8-18.3-.8-7.4-9.4 26-20.4 48.5-57.2 55.6-90.9 9.8-46.8 1.5-88.3-27-133.8-6.4-10.4-6.8-9.4 9.5-22.4 25.7-20.4 31.5-31.8 19.1-37.7-6.3-3-9.2-.4-29 26.3a247.2 247.2 0 0 1-12.6 16.1c-.3.1-4.7-3.1-9.5-7-36-29-78.3-43.2-116.9-39.3zm4 11c1.2 1.2 1.5 4 1.5 14.3v12.8l-33.8 16.1c-18.5 8.8-35 16.5-36.6 17.1-2.8 1.1-3.2.8-13.8-9.6A150 150 0 0 1 201 182c0-.9 17.3-13.9 24.3-18.4 21.4-13.6 63.7-26.5 69.1-21zm39.1 2.3c5.6 2.5 5.3 3.6-2 7.6-14.8 8.2-19.3 8-18.9-.7.5-10.3 7.8-12.7 20.9-6.9zM344 152c0 2.7-18.9 37-26.3 47.9-4.3 6.2-5 4.1-5.5-17l-.5-17.8 9.4-4.7c16.2-8.2 22.9-10.6 22.9-8.4zm3 17.6c-11.1 42.5-17 57.4-22.7 57.4-10 0-13.5-5.7-9-15.2a512.7 512.7 0 0 1 33.1-57.6c3.2-3.6 3-1.7-1.5 15.4zm25.8-10.7c11.6 5.9 31.2 22.6 31.2 26.5 0 3.4-10.7 12.3-13.5 11.2-.8-.3-4.4-5.6-8-11.8a369 369 0 0 0-11-17.3c-7.2-10.2-6.8-12.8 1.3-8.6zm-77.3 24.7c.4 4.8.5 15.2.3 23.1-.6 16.5-.8 16.9-8.9 19-2.9.7-10.4 3.8-17 6.9-9 4.2-12.2 5.3-13.6 4.5a379.7 379.7 0 0 1-29.3-29.8c0-2.3 61.3-32.1 66.2-32.3 1.3 0 1.7 1.5 2.3 8.6zm-102.4 17.5a759 759 0 0 1 49.2 49.1l2.8 3.7-4 8.9a72.1 72.1 0 0 0-4.6 12.8c-2 11.3-4.3 13.4-15.3 13.4-9.7 0-10.3-.7-10.9-11.6-2.3-48.6-2.9-52.8-5.7-40.8a589 589 0 0 1-8.7 29l-7 21.4h-14.7c-20.7 0-21-.3-17.6-18.2 4.6-24.9 24.8-70.8 31.2-70.8.5 0 2.9 1.4 5.3 3.1zm228.6 1.4c9.1 6.3 25.5 48.7 28.8 74.2 1.4 11.4 3.1 10.3-15.6 10.3h-15.8l-1.1-5.8a449.7 449.7 0 0 0-13-46.7c-3.3-9.9-5.6-18.3-5.2-18.6l8.5-7.8c8.2-7.4 9.8-8.1 13.4-5.6zm-100.7 26c6 1.6 6.3 4.4 1.4 16.7-13.5 34.4-51.1 95.3-60.5 98.3-3.3 1-9.4-3.8-12.5-9.8-1.6-3-2-2 13.9-31.2 6.1-11.1 39.7-70.2 42.2-74.2 1.5-2.3 6.7-2.3 15.5.1zm-19-.4c0 1.3-2.5 6-27.8 50.3-20.4 35.9-26.9 46.6-28.1 46.6-8.8 0-12-37.8-5-56.6a74 74 0 0 1 39.9-38.6c7.9-2.9 21-4 21-1.7zM178.3 307c1.7 1.6-13.5 30-16 30-2.2 0-8-23.8-7.1-28.8.6-2.9 20.4-4 23.1-1.2zm262.9-1h8.8v4.2c0 16.2-14.4 55.9-24.5 67.5l-3.3 3.8-.7-2.6c-.3-1.5-.1-8.6.5-16 .5-7.3 1-23.4 1-35.8v-22.4l4.7.6c2.5.4 8.5.7 13.4.7zM229 307.1c6 1.3 6.8 2.3 11 13.9 3.6 10.3 3.6 10.7.3 16.7-13.5 24.6-24.3 37-26.8 30.5-2.3-5.9-3.5-58.9-1.3-61 1.5-1.5 10-1.6 16.8-.1zm19.4 29.8c.8 1.3-5.2 8.1-7 8.1-2 0-.9-3.7 1.9-6.8 2.1-2.3 4.2-2.9 5.1-1.3zm-16.3 73.6c16.3 1.7 41 5.3 41.7 6 1.3 1.2-1.8 1.8-17 3.1-29.4 2.6-36.5 1.6-42.1-5.8-3.9-5.2-2.8-5.4 17.4-3.3zm160.4 2.5c0 1.9-16.3 13-19 13-3.5 0-7.2-9.8-4.4-11.6 4.3-2.7 23.4-3.9 23.4-1.4zm-37.5 4c3.4 1.8 5.3 6.7 2.8 7.3a183 183 0 0 1-34.9-.4c-2.1-1.1-2.6-5.4-.6-6.6 3-1.9 29-2.1 32.7-.3zm-150.3 3.4c19.4 14.6 19 16.7-3.7 18.2-21.2 1.3-21.8-.3-7.3-18.4 4.2-5.2 3.8-5.2 11 .2z"/><path fill="#305f97" d="M82.1 290.4c-10.5 5.8-4.3 17.9 9.6 18.4 8.5.3 39.7-4.5 45-7 3.2-1.5 4.1-4.9 1.8-6.8-4.9-4-50.6-7.8-56.4-4.6zm411.9-.3c-24.3 3.1-27.8 4.5-25 9.8 2 3.9 34.5 9.9 48.5 8.9 9.8-.7 15.3-9.3 10.7-16.5-2-3.2-18.6-4.2-34.2-2.2z"/></g></svg>